<svg xmlns="http://www.w3.org/2000/svg" viewBox="0 0 48 48" height="24" width="24"><path d="M 23.997797,0.59238165 C 10.745088,0.59238165 7.5e-6,11.337462 7.5e-6,24.593122 c 0,10.60364 6.876085,19.59839 16.4130265,22.77344 1.200773,0.21954 1.638356,-0.52156 1.638356,-1.15804 0,-0.56871 -0.02062,-2.07889 -0.03242,-4.08116 -6.675709,1.44977 -8.0842275,-3.21778 -8.0842275,-3.21778 -1.091746,-2.77136 -2.665274,-3.5095 -2.665274,-3.5095 -2.179073,-1.48955 0.165021,-1.46008 0.165021,-1.46008 2.408911,0.1709 3.6759865,2.47374 3.6759865,2.47374 2.140765,3.66715 5.617851,2.60782 6.985113,1.9949 0.218055,-1.55142 0.836858,-2.60928 1.523436,-3.20894 -5.329079,-0.60554 -10.9321955,-2.66527 -10.9321955,-11.86187 0,-2.6196 0.935572,-4.76184 2.4707935,-6.43998 -0.247531,-0.60701 -1.07112,-3.04687 0.234251,-6.35157 0,0 2.015532,-0.6453204 6.600572,2.46048 1.913871,-0.53188 3.967709,-0.79855 6.008287,-0.80739 2.037632,0.009 4.09147,0.27551 6.008288,0.80739 4.582092,-3.1058004 6.593204,-2.46048 6.593204,-2.46048 1.309801,3.3047 0.486203,5.74456 0.238681,6.35157 1.538168,1.67814 2.467848,3.82038 2.467848,6.43998 0,9.22017 -5.61196,11.24897 -10.958717,11.84272 0.861905,0.74109 1.629516,2.2056 1.629516,4.44507 0,3.20747 -0.02947,5.79613 -0.02947,6.5829 0,0.64237 0.43169,1.38936 1.650143,1.15509 9.529574,-3.18094 16.399767,-12.1698 16.399767,-22.77049 0,-13.25566 -10.746555,-24.00074035 -24.002211,-24.00074035"></path></svg>